<svg xmlns="http://www.w3.org/2000/svg" xmlns:xlink="http://www.w3.org/1999/xlink" version="1.1" x="0px" y="0px" viewBox="0 0 485.029 495.257" style="fill: rgb(0, 0, 0);" xml:space="preserve" role="img" aria-label="Mock Logo">
<g id="__id4_sax1iq52j">
	<path style="fill: rgb(94, 23, 235);" d="M149.181,317.811c-46.403-3.397-92.807-9.224-139.211-17.479   c-7.918-33.622-7.96-67.243-0.126-100.865c46.428-8.167,92.857-13.932,139.285-17.292   C145.906,227.386,145.923,272.597,149.181,317.811z"></path>
	<path style="fill: rgb(94, 23, 235);" d="M151.977,149.934c-45.071,4.967-90.142,13.486-135.212,25.557   c11.578-33.622,31.031-67.243,58.361-100.865c33.623-28.495,67.244-48.604,100.866-60.329   C164.746,59.509,156.741,104.722,151.977,149.934z"></path>
	<path style="fill: rgb(94, 23, 235);" d="M314.595,147.426c-45.07-3.577-90.14-3.602-135.21-0.075c3.383-46.383,9.067-92.768,17.052-139.151   c33.621-8.326,67.243-8.267,100.864,0.177C305.398,54.727,311.164,101.077,314.595,147.426z"></path>
	<path style="fill: rgb(94, 23, 235);" d="M417.903,424.63c-33.62,28.494-67.24,48.604-100.861,60.328   c11.247-45.212,19.252-90.424,24.016-135.636c45.07-4.968,90.139-13.486,135.207-25.558   C464.687,357.388,445.233,391.009,417.903,424.63z"></path>
</g>
<g id="__id5_sax1iq52j">
	<path style="fill: rgb(94, 23, 235);" d="M167.992,477.96c-33.622-11.725-67.244-31.835-100.866-60.33   c-27.33-33.621-46.783-67.242-58.361-100.865c45.071,12.072,90.142,20.591,135.212,25.558   C148.741,387.536,156.746,432.748,167.992,477.96z"></path>
	<path style="fill: rgb(94, 23, 235);" d="M308.608,312.525c-46.402,2.446-92.806,2.463-139.208,0.051   c-2.314-46.383-2.326-92.767-0.038-139.15c46.428-2.387,92.855-2.37,139.283,0.051   C310.968,219.826,310.954,266.176,308.608,312.525z"></path>
	<path style="fill: rgb(94, 23, 235);" d="M289.301,483.88c-33.621,8.443-67.243,8.502-100.864,0.177   c-7.985-46.384-13.669-92.769-17.052-139.15c45.07,3.526,90.14,3.502,135.21-0.075C303.164,391.182,297.398,437.53,289.301,483.88z   "></path>
	<path style="fill: rgb(94, 23, 235);" d="M475.059,293.331c-46.4,8.255-92.802,14.082-139.204,17.479   c3.258-45.213,3.276-90.423,0.053-135.636c46.426,3.361,92.852,9.125,139.278,17.292   C483.02,226.088,482.978,259.709,475.059,293.331z"></path>
	<path style="fill: rgb(94, 23, 235);" d="M468.265,168.491c-45.067-12.07-90.137-20.589-135.207-25.557   c-4.764-45.212-12.769-90.424-24.016-135.636c33.621,11.725,67.241,31.834,100.861,60.328   C437.233,101.248,456.687,134.869,468.265,168.491z"></path>
</g>
</svg>